<svg xmlns="http://www.w3.org/2000/svg" viewBox="0 -1.80 722.28 123.60" width="722" height="124"><title>PracticeFit</title>
<path d="M41.40 36.00 L48.78 53.22 L66.00 60.60 L48.78 67.98 L41.40 85.20 L34.02 67.98 L16.80 60.60 L34.02 53.22 Z" fill="#4D7A60"/>
<path d="M140 0V1440H748Q769 1440 804.5 1438.5Q840 1437 868 1432Q997 1412 1079.5 1347.0Q1162 1282 1201.0 1183.5Q1240 1085 1240 964Q1240 843 1200.5 744.5Q1161 646 1078.5 581.0Q996 516 868 496Q840 492 804.0 490.0Q768 488 748 488H412V0ZM412 742H736Q757 742 782.0 744.0Q807 746 828 752Q883 767 913.0 802.5Q943 838 954.5 881.5Q966 925 966 964Q966 1003 954.5 1046.5Q943 1090 913.0 1125.5Q883 1161 828 1176Q807 1182 782.0 1184.0Q757 1186 736 1186H412Z" transform="translate(102.00,103.20) scale(0.06000,-0.06000)" fill="#14233F"/>
<path d="M140 0V1080H380V816L354 850Q375 906 410.0 952.0Q445 998 496 1028Q535 1052 581.0 1065.5Q627 1079 676.0 1082.5Q725 1086 774 1080V826Q729 840 669.5 835.5Q610 831 562 808Q514 786 481.0 749.5Q448 713 431.0 663.5Q414 614 414 552V0Z" transform="translate(175.20,103.20) scale(0.06000,-0.06000)" fill="#14233F"/>
<path d="M440 -30Q324 -30 243.5 14.5Q163 59 121.5 133.5Q80 208 80 298Q80 373 103.0 435.0Q126 497 177.5 544.5Q229 592 316 624Q376 646 459.0 663.0Q542 680 647.0 695.5Q752 711 878 730L780 676Q780 772 734.0 817.0Q688 862 580 862Q520 862 455.0 833.0Q390 804 364 730L118 808Q159 942 272.0 1026.0Q385 1110 580 1110Q723 1110 834.0 1066.0Q945 1022 1002 914Q1034 854 1040.0 794.0Q1046 734 1046 660V0H808V222L842 176Q763 67 671.5 18.5Q580 -30 440 -30ZM498 184Q573 184 624.5 210.5Q676 237 706.5 271.0Q737 305 748 328Q769 372 772.5 430.5Q776 489 776 528L856 508Q735 488 660.0 474.5Q585 461 539.0 450.0Q493 439 458 426Q418 410 393.5 391.5Q369 373 357.5 351.0Q346 329 346 302Q346 265 364.5 238.5Q383 212 417.0 198.0Q451 184 498 184Z" transform="translate(219.84,103.20) scale(0.06000,-0.06000)" fill="#14233F"/>
<path d="M616 -30Q448 -30 328.0 45.0Q208 120 144.0 249.0Q80 378 80 540Q80 704 146.5 833.0Q213 962 334.0 1036.0Q455 1110 620 1110Q811 1110 940.5 1013.5Q1070 917 1106 750L834 678Q810 762 750.5 809.0Q691 856 616 856Q530 856 475.0 814.5Q420 773 394.0 701.5Q368 630 368 540Q368 399 430.5 311.5Q493 224 616 224Q708 224 756.0 266.0Q804 308 828 386L1106 328Q1060 156 932.0 63.0Q804 -30 616 -30Z" transform="translate(285.00,103.20) scale(0.06000,-0.06000)" fill="#14233F"/>
<path d="M788 0Q676 -21 568.5 -18.5Q461 -16 376.5 19.5Q292 55 248 134Q208 208 206.0 284.5Q204 361 204 458V1380H476V474Q476 411 477.5 360.5Q479 310 498 280Q534 223 613.0 218.0Q692 213 788 226ZM20 870V1080H788V870Z" transform="translate(350.16,103.20) scale(0.06000,-0.06000)" fill="#14233F"/>
<path d="M160 1230V1470H432V1230ZM160 0V1080H432V0Z" transform="translate(398.64,103.20) scale(0.06000,-0.06000)" fill="#14233F"/>
<path d="M616 -30Q448 -30 328.0 45.0Q208 120 144.0 249.0Q80 378 80 540Q80 704 146.5 833.0Q213 962 334.0 1036.0Q455 1110 620 1110Q811 1110 940.5 1013.5Q1070 917 1106 750L834 678Q810 762 750.5 809.0Q691 856 616 856Q530 856 475.0 814.5Q420 773 394.0 701.5Q368 630 368 540Q368 399 430.5 311.5Q493 224 616 224Q708 224 756.0 266.0Q804 308 828 386L1106 328Q1060 156 932.0 63.0Q804 -30 616 -30Z" transform="translate(429.36,103.20) scale(0.06000,-0.06000)" fill="#14233F"/>
<path d="M642 -30Q476 -30 349.5 41.5Q223 113 151.5 238.5Q80 364 80 526Q80 703 150.0 834.0Q220 965 343.0 1037.5Q466 1110 626 1110Q796 1110 915.0 1030.0Q1034 950 1091.0 805.0Q1148 660 1131 464H862V564Q862 729 809.5 801.5Q757 874 638 874Q499 874 433.5 789.5Q368 705 368 540Q368 389 433.5 306.5Q499 224 626 224Q706 224 763.0 259.0Q820 294 850 360L1122 282Q1061 134 929.5 52.0Q798 -30 642 -30ZM284 464V666H1000V464Z" transform="translate(494.52,103.20) scale(0.06000,-0.06000)" fill="#14233F"/>
<path d="M140 0V1440H1020V1168H412V856H900V584H412V0Z" transform="translate(562.68,103.20) scale(0.06000,-0.06000)" fill="#4D7A60"/>
<path d="M160 1230V1470H432V1230ZM160 0V1080H432V0Z" transform="translate(621.48,103.20) scale(0.06000,-0.06000)" fill="#4D7A60"/>
<path d="M788 0Q676 -21 568.5 -18.5Q461 -16 376.5 19.5Q292 55 248 134Q208 208 206.0 284.5Q204 361 204 458V1380H476V474Q476 411 477.5 360.5Q479 310 498 280Q534 223 613.0 218.0Q692 213 788 226ZM20 870V1080H788V870Z" transform="translate(652.20,103.20) scale(0.06000,-0.06000)" fill="#4D7A60"/>
</svg>
